<?xml version="1.0" encoding="UTF-8" standalone="no"?>
<svg
   version="1.1"
   width="1000"
   height="1000"
   style="clip-rule:evenodd;fill-rule:evenodd;image-rendering:optimizeQuality;shape-rendering:geometricPrecision;text-rendering:geometricPrecision"
   id="svg23"
   xmlns="http://www.w3.org/2000/svg"
   xmlns:svg="http://www.w3.org/2000/svg">
  <defs
     id="defs23" />
  <g
     id="g1"
     style="opacity:0.04">
    <path
       style="opacity:1;fill:#000000;fill-opacity:0"
       fill="#000000"
       d="m -0.5,-0.5 c 88,0 176,0 264,0 0.372,32.4348 -5.295,63.7682 -17,94 -2.667,4 -5.333,8 -8,12 -10.889,10.408 -23.889,15.075 -39,14 -5.333,-0.333 -10.667,-0.667 -16,-1 -22.496,-5.233 -45.163,-9.566 -68,-13 -8.753,1.236 -17.4194,2.903 -26,5 -18.706,9.402 -37.3727,18.736 -56,28 -5.3759,0.785 -10.7092,1.785 -16,3 -6.0371,-1.34 -12.0371,-2.673 -18,-4 0,-46 0,-92 0,-138 z"
       id="path1" />
  </g>
  <g
     id="g2"
     style="opacity:0.04">
    <path
       style="opacity:1"
       fill="#fefffe"
       d="m 263.5,-0.5 c 4,0 8,0 12,0 -4.095,27.4768 -9.095,54.8101 -15,82 -3.059,10.7836 -7.726,20.784 -14,30 -11.314,11.153 -24.981,17.153 -41,18 -28.91,-5.811 -57.91,-11.144 -87,-16 -9.073,1.296 -18.073,2.963 -27,5 -18.3056,8.154 -36.3056,16.82 -54,26 -12.5821,3.659 -25.2488,3.992 -38,1 0,-2.667 0,-5.333 0,-8 5.9629,1.327 11.9629,2.66 18,4 5.2908,-1.215 10.6241,-2.215 16,-3 18.6273,-9.264 37.294,-18.598 56,-28 8.5806,-2.097 17.247,-3.764 26,-5 22.837,3.434 45.504,7.767 68,13 5.333,0.333 10.667,0.667 16,1 15.111,1.075 28.111,-3.592 39,-14 2.667,-4 5.333,-8 8,-12 11.705,-30.2318 17.372,-61.5652 17,-94 z"
       id="path2" />
  </g>
  <g
     id="g3"
     style="opacity:0.04">
    <path
       style="opacity:1;fill:#000000;fill-opacity:0"
       fill="#000000"
       d="m 275.5,-0.5 c 25.333,0 50.667,0 76,0 7.994,8.33002 15.66,16.9967 23,26 10.17,15.5111 12.837,32.1777 8,50 -5.106,14.3166 -8.773,28.983 -11,44 1.799,13.863 5.465,27.196 11,40 9.218,20.437 17.885,41.103 26,62 3.492,7.653 7.492,14.987 12,22 13.861,15.046 30.861,20.046 51,15 27.495,-6.943 54.161,-16.276 80,-28 6.547,-2.405 13.214,-4.405 20,-6 15.998,-3.566 28.331,1.434 37,15 4.437,7.541 7.771,15.541 10,24 3.24,23.639 6.24,47.306 9,71 2.736,13.542 7.069,26.542 13,39 5,5 10,10 15,15 13.652,6.337 25.318,15.337 35,27 7.838,12.339 15.172,25.006 22,38 16.651,24.163 37.651,28.496 63,13 13.333,-9.333 26.667,-18.667 40,-28 21.191,-12.437 43.857,-16.103 68,-11 12.083,-0.187 23.416,-3.187 34,-9 9.829,-8.487 18.163,-18.154 25,-29 15.146,-30.275 10.813,-57.275 -13,-81 -15.039,-9.371 -31.039,-11.371 -48,-6 -18.707,6.352 -36.707,14.352 -54,24 -22.781,8.721 -41.115,3.055 -55,-17 -2.667,-5.333 -5.333,-10.667 -8,-16 -8,-24 -16,-48 -24,-72 -1.881,-7.955 -3.548,-15.955 -5,-24 1.427,-11.856 6.76,-21.523 16,-29 3.665,-1.497 6.998,-3.497 10,-6 22.454,-7.948 45.12,-15.281 68,-22 29.918,-12.664 36.251,-32.998 19,-61 -11.797,-17.2445 -24.797,-33.5779 -39,-49 -5.333,-4 -10.667,-8 -16,-12 -6.667,-3.3333 -13.333,-6.6667 -20,-10 -8.43,-2.4683 -16.43,-5.4683 -24,-9 72,0 144,0 216,0 0.333,15.3478 -10e-4,30.6811 -1,46 -2.43,13.5798 -4.097,27.2465 -5,41 0.281,28.248 13.614,47.248 40,57 0,118.667 0,237.333 0,356 -15.221,-4.306 -30.555,-8.306 -46,-12 -17.675,-4.312 -34.341,-1.978 -50,7 -2.101,2.77 -4.768,4.77 -8,6 -14.063,13.394 -27.397,27.394 -40,42 -14.838,12.949 -32.172,19.616 -52,20 -24,0.667 -48,1.333 -72,2 -6.786,1.595 -13.453,3.595 -20,6 -10.317,4.824 -20.317,10.158 -30,16 -6.268,1.58 -12.268,0.914 -18,-2 -16.738,-20.073 -35.405,-38.073 -56,-54 -18.723,-11.888 -37.39,-11.888 -56,0 -4.813,4.57 -9.813,8.903 -15,13 -12.098,14.096 -23.432,28.762 -34,44 -2.333,2.333 -4.667,4.667 -7,7 -3.91,1.907 -7.244,4.573 -10,8 -18.497,9.053 -37.164,17.72 -56,26 -3.483,3.239 -7.15,6.239 -11,9 -12.554,18.094 -17.221,38.094 -14,60 4.451,14.806 8.118,29.806 11,45 -1.321,13.31 -7.321,23.977 -18,32 -12.208,8.274 -23.875,17.274 -35,27 -5.445,6.114 -10.112,12.78 -14,20 -5.056,10.501 -9.722,21.168 -14,32 -3.606,11.484 -7.606,22.818 -12,34 -4.935,13.741 -8.935,27.741 -12,42 -1.333,8.667 -1.333,17.333 0,26 1.333,2.667 2.667,5.333 4,8 12.072,11.737 23.739,23.737 35,36 -24.667,0 -49.333,0 -74,0 0.329,-6.037 -0.004,-12.037 -1,-18 -1.584,-4.175 -3.918,-7.841 -7,-11 -5.764,-3.216 -11.764,-5.883 -18,-8 -19.907,-4.429 -39.907,-8.429 -60,-12 -6.786,-1.595 -13.453,-3.595 -20,-6 -15.224,-6.279 -29.891,-13.612 -44,-22 -9.357,-3.605 -19.023,-5.938 -29,-7 -32.9753,4.661 -65.3087,11.995 -97,22 0,-62.667 0,-125.333 0,-188 8.53515,3.179 17.2018,6.179 26,9 18.8461,4.711 37.5127,10.045 56,16 7.6535,3.492 14.9868,7.492 22,12 6.955,7.134 14.288,13.8 22,20 9.463,4.803 19.463,6.136 30,4 44.577,-15.78 81.577,-42.113 111,-79 4.649,-11.452 3.316,-22.119 -4,-32 -13.549,-15.547 -29.882,-27.213 -49,-35 -9.394,-3.212 -19.061,-4.879 -29,-5 -11.77,0.887 -23.437,2.554 -35,5 -10.667,1.333 -21.333,1.333 -32,0 -6.236,-2.117 -12.236,-4.784 -18,-8 -5.6667,-5.667 -11.3333,-11.333 -17,-17 -15.3944,-23.642 -22.061,-49.642 -20,-78 -0.9728,-22.284 -11.3061,-38.617 -31,-49 -10.2139,-5.071 -20.8806,-8.738 -32,-11 0,-118.667 0,-237.333 0,-356 12.7512,2.992 25.4179,2.659 38,-1 17.6944,-9.18 35.6944,-17.846 54,-26 8.927,-2.037 17.927,-3.704 27,-5 29.09,4.856 58.09,10.189 87,16 16.019,-0.847 29.686,-6.847 41,-18 6.274,-9.216 10.941,-19.2164 14,-30 5.905,-27.1899 10.905,-54.5232 15,-82 z"
       id="path3" />
  </g>
  <g
     id="g4"
     style="opacity:0.04">
    <path
       style="opacity:1"
       fill="#fefffe"
       d="m 351.5,-0.5 c 3.333,0 6.667,0 10,0 3.922,4.92695 8.256,9.59362 13,14 3.333,4.6667 6.667,9.3333 10,14 8.139,13.6624 10.806,28.3291 8,44 -5.773,16.3152 -10.107,32.982 -13,50 1.82,14.465 5.487,28.465 11,42 7.333,18 14.667,36 22,54 4.796,11.259 11.796,20.925 21,29 4,2 8,4 12,6 10,1.333 20,1.333 30,0 11.57,-2.523 22.904,-5.857 34,-10 20,-8.667 40,-17.333 60,-26 18.467,-6.512 32.801,-1.512 43,15 6.397,11.19 10.397,23.19 12,36 2,18.667 4,37.333 6,56 2.681,14.042 7.347,27.376 14,40 10.701,11.838 23.034,21.505 37,29 3.667,3.667 7.333,7.333 11,11 7.838,12.339 15.172,25.006 22,38 3.333,4.667 6.667,9.333 10,14 12.223,10.261 25.89,12.594 41,7 5.333,-2.667 10.667,-5.333 16,-8 12,-8.667 24,-17.333 36,-26 20.164,-10.766 41.497,-13.766 64,-9 10.406,-0.769 20.406,-3.102 30,-7 12.529,-8.527 22.196,-19.527 29,-33 8.021,-20.433 6.021,-39.766 -6,-58 -14.823,-15.376 -32.489,-19.709 -53,-13 -4,1.333 -8,2.667 -12,4 -14.667,8 -29.333,16 -44,24 -5.911,1.978 -11.911,3.645 -18,5 -6.089,-1.355 -12.089,-3.022 -18,-5 -12.458,-7.201 -21.458,-17.535 -27,-31 -8.132,-29.061 -17.465,-57.728 -28,-86 -4.237,-11.702 -5.57,-23.702 -4,-36 4.229,-8.896 10.562,-15.896 19,-21 7.095,-3.881 14.429,-7.215 22,-10 19.636,-5.075 38.969,-11.075 58,-18 3.698,-2.186 7.032,-4.853 10,-8 1.189,-0.929 2.522,-1.262 4,-1 1.144,-3.511 2.811,-6.844 5,-10 1.333,-7.333 1.333,-14.667 0,-22 -11.721,-25.0661 -28.054,-46.7327 -49,-65 -5.333,-3.3333 -10.667,-6.6667 -16,-10 -16.497,-7.3787 -33.164,-13.71205 -50,-19 5.333,0 10.667,0 16,0 7.57,3.5317 15.57,6.5317 24,9 6.667,3.3333 13.333,6.6667 20,10 5.333,4 10.667,8 16,12 14.203,15.4221 27.203,31.7555 39,49 17.251,28.002 10.918,48.336 -19,61 -22.88,6.719 -45.546,14.052 -68,22 -3.002,2.503 -6.335,4.503 -10,6 -9.24,7.477 -14.573,17.144 -16,29 1.452,8.045 3.119,16.045 5,24 8,24 16,48 24,72 2.667,5.333 5.333,10.667 8,16 13.885,20.055 32.219,25.721 55,17 17.293,-9.648 35.293,-17.648 54,-24 16.961,-5.371 32.961,-3.371 48,6 23.813,23.725 28.146,50.725 13,81 -6.837,10.846 -15.171,20.513 -25,29 -10.584,5.813 -21.917,8.813 -34,9 -24.143,-5.103 -46.809,-1.437 -68,11 -13.333,9.333 -26.667,18.667 -40,28 -25.349,15.496 -46.349,11.163 -63,-13 -6.828,-12.994 -14.162,-25.661 -22,-38 -9.682,-11.663 -21.348,-20.663 -35,-27 -5,-5 -10,-10 -15,-15 -5.931,-12.458 -10.264,-25.458 -13,-39 -2.76,-23.694 -5.76,-47.361 -9,-71 -2.229,-8.459 -5.563,-16.459 -10,-24 -8.669,-13.566 -21.002,-18.566 -37,-15 -6.786,1.595 -13.453,3.595 -20,6 -25.839,11.724 -52.505,21.057 -80,28 -20.139,5.046 -37.139,0.046 -51,-15 -4.508,-7.013 -8.508,-14.347 -12,-22 -8.115,-20.897 -16.782,-41.563 -26,-62 -5.535,-12.804 -9.201,-26.137 -11,-40 2.227,-15.017 5.894,-29.6834 11,-44 4.837,-17.8223 2.17,-34.4889 -8,-50 -7.34,-9.0033 -15.006,-17.66998 -23,-26 z"
       id="path4" />
  </g>
  <g
     id="g5"
     style="opacity:0.04">
    <path
       style="opacity:1;fill:#000000;fill-opacity:0"
       fill="#000000"
       d="m 361.5,-0.5 c 44.667,0 89.333,0 134,0 -5.585,15.0893 -10.585,30.4226 -15,46 -2.463,14.6771 -0.463,28.6771 6,42 7.667,13 18,23.333 31,31 14.828,8.708 30.828,13.708 48,15 13.503,-0.252 24.503,-5.585 33,-16 9.18,-17.6944 17.846,-35.6944 26,-54 4.667,-6.6667 9.333,-13.3333 14,-20 4.749,-4.0779 8.749,-8.7446 12,-14 6.522,-5.4322 12.855,-11.0989 19,-17 7.46,-4.38591 14.793,-8.71924 22,-13 14,0 28,0 42,0 16.836,5.28795 33.503,11.6213 50,19 5.333,3.3333 10.667,6.6667 16,10 20.946,18.2673 37.279,39.9339 49,65 1.333,7.333 1.333,14.667 0,22 -2.189,3.156 -3.856,6.489 -5,10 -1.478,-0.262 -2.811,0.071 -4,1 -2.968,3.147 -6.302,5.814 -10,8 -19.031,6.925 -38.364,12.925 -58,18 -7.571,2.785 -14.905,6.119 -22,10 -8.438,5.104 -14.771,12.104 -19,21 -1.57,12.298 -0.237,24.298 4,36 10.535,28.272 19.868,56.939 28,86 5.542,13.465 14.542,23.799 27,31 5.911,1.978 11.911,3.645 18,5 6.089,-1.355 12.089,-3.022 18,-5 14.667,-8 29.333,-16 44,-24 4,-1.333 8,-2.667 12,-4 20.511,-6.709 38.177,-2.376 53,13 12.021,18.234 14.021,37.567 6,58 -6.804,13.473 -16.471,24.473 -29,33 -9.594,3.898 -19.594,6.231 -30,7 -22.503,-4.766 -43.836,-1.766 -64,9 -12,8.667 -24,17.333 -36,26 -5.333,2.667 -10.667,5.333 -16,8 -15.11,5.594 -28.777,3.261 -41,-7 -3.333,-4.667 -6.667,-9.333 -10,-14 -6.828,-12.994 -14.162,-25.661 -22,-38 -3.667,-3.667 -7.333,-7.333 -11,-11 -13.966,-7.495 -26.299,-17.162 -37,-29 -6.653,-12.624 -11.319,-25.958 -14,-40 -2,-18.667 -4,-37.333 -6,-56 -1.603,-12.81 -5.603,-24.81 -12,-36 -10.199,-16.512 -24.533,-21.512 -43,-15 -20,8.667 -40,17.333 -60,26 -11.096,4.143 -22.43,7.477 -34,10 -10,1.333 -20,1.333 -30,0 -4,-2 -8,-4 -12,-6 -9.204,-8.075 -16.204,-17.741 -21,-29 -7.333,-18 -14.667,-36 -22,-54 -5.513,-13.535 -9.18,-27.535 -11,-42 2.893,-17.018 7.227,-33.6848 13,-50 2.806,-15.6709 0.139,-30.3376 -8,-44 -3.333,-4.6667 -6.667,-9.3333 -10,-14 -4.744,-4.40638 -9.078,-9.07305 -13,-14 z"
       id="path5" />
  </g>
  <g
     id="g6"
     style="opacity:0.04">
    <path
       style="opacity:1"
       fill="#fefffe"
       d="m 495.5,-0.5 c 2,0 4,0 6,0 -6.38,14.8089 -11.38,30.1423 -15,46 -1.787,12.3436 -0.454,24.3436 4,36 3.504,6.3441 7.504,12.3441 12,18 15.574,15.118 34.24,23.118 56,24 14.689,0.654 26.689,-4.679 36,-16 10.829,-19.662 22.162,-38.9953 34,-58 8.333,-9.6667 16.667,-19.3333 25,-29 8.464,-7.4865 17.131,-14.48652 26,-21 4,0 8,0 12,0 -7.207,4.28076 -14.54,8.61409 -22,13 -6.145,5.9011 -12.478,11.5678 -19,17 -3.251,5.2554 -7.251,9.9221 -12,14 -4.667,6.6667 -9.333,13.3333 -14,20 -8.154,18.3056 -16.82,36.3056 -26,54 -8.497,10.415 -19.497,15.748 -33,16 -17.172,-1.292 -33.172,-6.292 -48,-15 -13,-7.667 -23.333,-18 -31,-31 -6.463,-13.3229 -8.463,-27.3229 -6,-42 4.415,-15.5774 9.415,-30.9107 15,-46 z"
       id="path6" />
  </g>
  <g
     id="g7"
     style="opacity:0.04">
    <path
       style="opacity:1;fill:#000000;fill-opacity:0"
       fill="#000000"
       d="m 501.5,-0.5 c 59.333,0 118.667,0 178,0 -8.869,6.51348 -17.536,13.5135 -26,21 -8.333,9.6667 -16.667,19.3333 -25,29 -11.838,19.0047 -23.171,38.338 -34,58 -9.311,11.321 -21.311,16.654 -36,16 -21.76,-0.882 -40.426,-8.882 -56,-24 -4.496,-5.6559 -8.496,-11.6559 -12,-18 -4.454,-11.6564 -5.787,-23.6564 -4,-36 3.62,-15.8577 8.62,-31.1911 15,-46 z"
       id="path7" />
  </g>
  <g
     id="g8"
     style="opacity:0.04">
    <path
       style="opacity:1"
       fill="#fefffe"
       d="m 965.5,-0.5 c 2,0 4,0 6,0 0.936,28.8756 -1.064,57.5422 -6,86 1.32,23.995 12.653,41.328 34,52 0,2 0,4 0,6 -26.386,-9.752 -39.719,-28.752 -40,-57 0.903,-13.7535 2.57,-27.4202 5,-41 0.999,-15.3189 1.333,-30.6522 1,-46 z"
       id="path8" />
  </g>
  <g
     id="g9"
     style="opacity:0.04">
    <path
       style="opacity:1;fill:#000000;fill-opacity:0"
       fill="#000000"
       d="m 971.5,-0.5 c 9.333,0 18.667,0 28,0 0,46 0,92 0,138 -21.347,-10.672 -32.68,-28.005 -34,-52 4.936,-28.4578 6.936,-57.1244 6,-86 z"
       id="path9" />
  </g>
  <g
     id="g11"
     style="opacity:0.04;fill:#fefffe;fill-opacity:0;stroke:#ffffff;stroke-opacity:1">
    <path
       id="path11"
       style="opacity:1;fill:#fefffe;fill-opacity:0;stroke:#ffffff;stroke-opacity:1"
       d="m 201.5,267.5 c 18.204,-0.411 35.537,3.256 52,11 22.98,11.15 44.98,23.817 66,38 10.242,9.48 16.575,21.146 19,35 0.18,17.563 2.18,34.896 6,52 4.158,8.985 8.825,17.652 14,26 10.753,11.416 20.753,23.416 30,36 8.471,14.947 11.138,30.947 8,48 -3.456,17.255 -11.789,31.588 -25,43 -14.252,8.611 -28.918,9.278 -44,2 -8.519,-3.869 -16.519,-8.535 -24,-14 -7.667,-7.667 -15.333,-15.333 -23,-23 -7.151,-8.306 -13.818,-16.973 -20,-26 -7.233,-7.477 -14.233,-15.144 -21,-23 -4.667,-3.333 -9.333,-6.667 -14,-10 -12.983,-6.157 -25.649,-12.824 -38,-20 -21.187,-21.362 -38.187,-45.695 -51,-73 -9.895,-33.653 -1.561,-61.987 25,-85 12.46,-8.248 25.793,-13.914 40,-17 z m -8,-6 c 17.885,-1.468 35.219,0.865 52,7 24.632,11.648 48.632,24.314 72,38 6.929,4.925 13.262,10.592 19,17 3.216,5.764 5.883,11.764 8,18 2.191,15.248 3.525,30.581 4,46 0.826,5.464 2.159,10.797 4,16 4.322,9.985 9.655,19.318 16,28 8.667,10 17.333,20 26,30 4.388,6.109 7.721,12.776 10,20 3.043,26.869 -2.957,51.536 -18,74 -15.636,18.506 -34.636,22.84 -57,13 -6.667,-3.333 -13.333,-6.667 -20,-10 -5.333,-4 -10.667,-8 -16,-12 -18.606,-20.608 -37.939,-40.608 -58,-60 -12.776,-7.721 -26.109,-14.388 -40,-20 -4,-2.667 -8,-5.333 -12,-8 -3.904,-4.148 -7.571,-8.481 -11,-13 -15.009,-23.344 -29.009,-47.344 -42,-72 -7.349,-17.231 -8.015,-34.564 -2,-52 5.564,-14.801 13.898,-27.801 25,-39 4.667,-3.333 9.333,-6.667 14,-10 8.786,-3.912 17.453,-7.578 26,-11 z" />
  </g>
  <g
     id="g12"
     style="opacity:0.04">
    <path
       style="opacity:1"
       fill="#fefffe"
       d="m 999.5,499.5 c 0,2 0,4 0,6 -24.325,-10.262 -49.659,-13.929 -76,-11 -15.162,5.82 -28.162,14.82 -39,27 -8.667,10.667 -17.333,21.333 -26,32 -11.491,12.575 -25.825,18.909 -43,19 -22.065,0.429 -44.065,1.762 -66,4 -12.347,2.334 -23.681,7.001 -34,14 -11.399,10.73 -22.066,22.063 -32,34 -12.747,10.258 -24.413,9.258 -35,-3 -3.747,-14.065 -7.747,-28.065 -12,-42 -11.863,-25.744 -31.53,-41.744 -59,-48 -6.02,1.538 -12.02,3.205 -18,5 -3.002,2.503 -6.335,4.503 -10,6 -15.997,15.703 -30.33,32.703 -43,51 -3.667,3.667 -7.333,7.333 -11,11 -4,2.667 -8,5.333 -12,8 -16.07,8.013 -32.07,16.013 -48,24 -19.945,18.355 -26.279,40.688 -19,67 5.517,13.545 9.183,27.545 11,42 0.177,7.134 -1.489,13.8 -5,20 -4.333,4.333 -8.667,8.667 -13,13 -11.674,6.835 -23.007,14.168 -34,22 -10.694,10.403 -19.694,22.07 -27,35 -11.13,25.846 -19.796,52.513 -26,80 -1.609,12.138 -0.942,24.138 2,36 4,6.667 8,13.333 12,20 8.007,9.671 16.34,19.004 25,28 -4,0 -8,0 -12,0 -11.261,-12.263 -22.928,-24.263 -35,-36 -1.333,-2.667 -2.667,-5.333 -4,-8 -1.333,-8.667 -1.333,-17.333 0,-26 3.065,-14.259 7.065,-28.259 12,-42 4.394,-11.182 8.394,-22.516 12,-34 4.278,-10.832 8.944,-21.499 14,-32 3.888,-7.22 8.555,-13.886 14,-20 11.125,-9.726 22.792,-18.726 35,-27 10.679,-8.023 16.679,-18.69 18,-32 -2.882,-15.194 -6.549,-30.194 -11,-45 -3.221,-21.906 1.446,-41.906 14,-60 3.85,-2.761 7.517,-5.761 11,-9 18.836,-8.28 37.503,-16.947 56,-26 2.756,-3.427 6.09,-6.093 10,-8 2.333,-2.333 4.667,-4.667 7,-7 10.568,-15.238 21.902,-29.904 34,-44 5.187,-4.097 10.187,-8.43 15,-13 18.61,-11.888 37.277,-11.888 56,0 20.595,15.927 39.262,33.927 56,54 5.732,2.914 11.732,3.58 18,2 9.683,-5.842 19.683,-11.176 30,-16 6.547,-2.405 13.214,-4.405 20,-6 24,-0.667 48,-1.333 72,-2 19.828,-0.384 37.162,-7.051 52,-20 12.603,-14.606 25.937,-28.606 40,-42 3.232,-1.23 5.899,-3.23 8,-6 15.659,-8.978 32.325,-11.312 50,-7 15.445,3.694 30.779,7.694 46,12 z"
       id="path12" />
  </g>
  <g
     id="g13"
     style="opacity:0.04">
    <path
       style="opacity:1;fill:#000000;fill-opacity:0"
       fill="#000000"
       d="m 999.5,505.5 c 0,80 0,160 0,240 -13.715,-5.573 -27.715,-10.573 -42,-15 -28.252,-10.518 -52.586,-4.852 -73,17 -8.258,11.398 -10.925,24.065 -8,38 8.387,21.825 16.387,43.825 24,66 1.882,9.294 3.549,18.628 5,28 -1.039,6.823 -2.706,13.49 -5,20 -6.097,7.715 -14.097,11.715 -24,12 -11.037,-1.679 -21.37,-5.346 -31,-11 -7,-5.667 -14,-11.333 -21,-17 -6.769,-7.434 -12.769,-15.434 -18,-24 -7.879,-15.09 -15.212,-30.424 -22,-46 -7.51,-9.591 -17.177,-15.924 -29,-19 -15.839,-4.101 -31.839,-7.434 -48,-10 -12.667,-1.333 -25.333,-1.333 -38,0 -8.439,2.217 -16.439,5.551 -24,10 -16.206,17.717 -32.873,35.051 -50,52 -7.013,4.508 -14.347,8.508 -22,12 -12.023,4.004 -24.023,8.004 -36,12 -9.298,4.91 -14.965,12.577 -17,23 -5.644,30.887 -12.311,61.554 -20,92 -1.487,4.799 -3.154,9.466 -5,14 -44.667,0 -89.333,0 -134,0 -8.66,-8.996 -16.993,-18.329 -25,-28 -4,-6.667 -8,-13.333 -12,-20 -2.942,-11.862 -3.609,-23.862 -2,-36 6.204,-27.487 14.87,-54.154 26,-80 7.306,-12.93 16.306,-24.597 27,-35 10.993,-7.832 22.326,-15.165 34,-22 4.333,-4.333 8.667,-8.667 13,-13 3.511,-6.2 5.177,-12.866 5,-20 -1.817,-14.455 -5.483,-28.455 -11,-42 -7.279,-26.312 -0.945,-48.645 19,-67 15.93,-7.987 31.93,-15.987 48,-24 4,-2.667 8,-5.333 12,-8 3.667,-3.667 7.333,-7.333 11,-11 12.67,-18.297 27.003,-35.297 43,-51 3.665,-1.497 6.998,-3.497 10,-6 5.98,-1.795 11.98,-3.462 18,-5 27.47,6.256 47.137,22.256 59,48 4.253,13.935 8.253,27.935 12,42 10.587,12.258 22.253,13.258 35,3 9.934,-11.937 20.601,-23.27 32,-34 10.319,-6.999 21.653,-11.666 34,-14 21.935,-2.238 43.935,-3.571 66,-4 17.175,-0.091 31.509,-6.425 43,-19 8.667,-10.667 17.333,-21.333 26,-32 10.838,-12.18 23.838,-21.18 39,-27 26.341,-2.929 51.675,0.738 76,11 z"
       id="path13" />
  </g>
  <g
     id="g14"
     style="opacity:0.04">
    <path
       style="opacity:1"
       fill="#fefffe"
       d="m -0.5,501.5 c 11.1194,2.262 21.7861,5.929 32,11 19.6939,10.383 30.0272,26.716 31,49 -2.061,28.358 4.6056,54.358 20,78 5.6667,5.667 11.3333,11.333 17,17 5.764,3.216 11.764,5.883 18,8 10.667,1.333 21.333,1.333 32,0 11.563,-2.446 23.23,-4.113 35,-5 9.939,0.121 19.606,1.788 29,5 19.118,7.787 35.451,19.453 49,35 7.316,9.881 8.649,20.548 4,32 -29.423,36.887 -66.423,63.22 -111,79 -10.537,2.136 -20.537,0.803 -30,-4 -7.712,-6.2 -15.045,-12.866 -22,-20 -7.0132,-4.508 -14.3465,-8.508 -22,-12 -18.4873,-5.955 -37.1539,-11.289 -56,-16 -8.7982,-2.821 -17.46485,-5.821 -26,-9 0,-1.333 0,-2.667 0,-4 33.145,8.964 66.4783,17.297 100,25 11.339,5.666 22.006,12.332 32,20 15.249,6.439 30.583,6.439 46,0 8,-4 16,-8 24,-12 6.667,-4.667 13.333,-9.333 20,-14 7.667,-7.667 15.333,-15.333 23,-23 9.904,-12.551 11.237,-25.884 4,-40 -16.612,-20.305 -37.946,-31.639 -64,-34 -16.889,2.758 -33.889,5.425 -51,8 -23.298,-2.148 -41.6309,-12.815 -55,-32 -11.0948,-15.54 -17.7615,-32.874 -20,-52 -0.5387,-14.084 -1.872,-28.084 -4,-42 -2.7099,-9.761 -7.7099,-18.094 -15,-25 -12.0412,-9.02 -25.3746,-15.354 -40,-19 0,-1.333 0,-2.667 0,-4 z"
       id="path14" />
  </g>
  <g
     id="g15"
     style="opacity:0.04">
    <path
       style="opacity:1;fill:#000000;fill-opacity:0"
       fill="#000000"
       d="m -0.5,505.5 c 14.6254,3.646 27.9588,9.98 40,19 7.2901,6.906 12.2901,15.239 15,25 2.128,13.916 3.4613,27.916 4,42 2.2385,19.126 8.9052,36.46 20,52 13.3691,19.185 31.702,29.852 55,32 17.111,-2.575 34.111,-5.242 51,-8 26.054,2.361 47.388,13.695 64,34 7.237,14.116 5.904,27.449 -4,40 -7.667,7.667 -15.333,15.333 -23,23 -6.667,4.667 -13.333,9.333 -20,14 -8,4 -16,8 -24,12 -15.417,6.439 -30.751,6.439 -46,0 -9.994,-7.668 -20.661,-14.334 -32,-20 -33.5217,-7.703 -66.855,-16.036 -100,-25 0,-80 0,-160 0,-240 z"
       id="path15" />
  </g>
  <g
     id="g16"
     style="opacity:0.04">
    <path
       style="opacity:1"
       fill="#fefffe"
       d="m 999.5,745.5 c 0,1.333 0,2.667 0,4 -16.452,-5.594 -33.119,-10.594 -50,-15 -22.396,-5.197 -41.396,0.47 -57,17 -4.978,7.623 -7.978,15.956 -9,25 1.108,5.647 2.108,11.314 3,17 5.443,16.882 11.443,33.549 18,50 6.365,18.875 8.365,38.209 6,58 -4.133,10.252 -11.799,15.919 -23,17 -22.149,1.594 -40.816,-5.739 -56,-22 -1.333,-0.667 -2.667,-1.333 -4,-2 -9.756,-10.419 -18.756,-21.419 -27,-33 -8,-14.667 -16,-29.333 -24,-44 -8.108,-9.058 -18.108,-15.058 -30,-18 -18.312,-5.274 -36.979,-8.608 -56,-10 -24.549,0.941 -44.549,10.941 -60,30 -10.252,14.92 -22.585,27.92 -37,39 -15.522,8.429 -31.522,15.762 -48,22 -2.457,3.058 -5.457,5.392 -9,7 -6.595,9.77 -11.261,20.437 -14,32 -6.385,26.877 -13.385,53.544 -21,80 -2,0 -4,0 -6,0 1.846,-4.534 3.513,-9.201 5,-14 7.689,-30.446 14.356,-61.113 20,-92 2.035,-10.423 7.702,-18.09 17,-23 11.977,-3.996 23.977,-7.996 36,-12 7.653,-3.492 14.987,-7.492 22,-12 17.127,-16.949 33.794,-34.283 50,-52 7.561,-4.449 15.561,-7.783 24,-10 12.667,-1.333 25.333,-1.333 38,0 16.161,2.566 32.161,5.899 48,10 11.823,3.076 21.49,9.409 29,19 6.788,15.576 14.121,30.91 22,46 5.231,8.566 11.231,16.566 18,24 7,5.667 14,11.333 21,17 9.63,5.654 19.963,9.321 31,11 9.903,-0.285 17.903,-4.285 24,-12 2.294,-6.51 3.961,-13.177 5,-20 -1.451,-9.372 -3.118,-18.706 -5,-28 -7.613,-22.175 -15.613,-44.175 -24,-66 -2.925,-13.935 -0.258,-26.602 8,-38 20.414,-21.852 44.748,-27.518 73,-17 14.285,4.427 28.285,9.427 42,15 z"
       id="path16" />
  </g>
  <g
     id="g17"
     style="opacity:0.04">
    <path
       style="opacity:1;fill:#000000;fill-opacity:0"
       fill="#000000"
       d="m 999.5,749.5 c 0,63.333 0,126.667 0,190 -16.758,4.424 -27.091,15.091 -31,32 -1.331,9.312 -2.331,18.646 -3,28 -74,0 -148,0 -222,0 -3.555,-2.201 -7.555,-3.868 -12,-5 -14.932,-4.52 -29.599,-3.853 -44,2 -1.832,0.557 -3.165,1.557 -4,3 -60.667,0 -121.333,0 -182,0 7.615,-26.456 14.615,-53.123 21,-80 2.739,-11.563 7.405,-22.23 14,-32 3.543,-1.608 6.543,-3.942 9,-7 16.478,-6.238 32.478,-13.571 48,-22 14.415,-11.08 26.748,-24.08 37,-39 15.451,-19.059 35.451,-29.059 60,-30 19.021,1.392 37.688,4.726 56,10 11.892,2.942 21.892,8.942 30,18 8,14.667 16,29.333 24,44 8.244,11.581 17.244,22.581 27,33 1.333,0.667 2.667,1.333 4,2 15.184,16.261 33.851,23.594 56,22 11.201,-1.081 18.867,-6.748 23,-17 2.365,-19.791 0.365,-39.125 -6,-58 -6.557,-16.451 -12.557,-33.118 -18,-50 -0.892,-5.686 -1.892,-11.353 -3,-17 1.022,-9.044 4.022,-17.377 9,-25 15.604,-16.53 34.604,-22.197 57,-17 16.881,4.406 33.548,9.406 50,15 z"
       id="path17" />
  </g>
  <g
     id="g18"
     style="opacity:0.04">
    <path
       style="opacity:1"
       fill="#fefffe"
       d="m 275.5,999.5 c -4,0 -8,0 -12,0 -1.364,-7.395 -4.364,-14.062 -9,-20 -5.842,-4.424 -12.176,-8.091 -19,-11 -18.508,-5.294 -37.174,-9.96 -56,-14 -16.095,-5.051 -31.428,-11.717 -46,-20 -8.923,-4.461 -18.257,-7.794 -28,-10 -14.0968,-1.46 -28.0968,-0.794 -42,2 -21.8936,3.806 -43.227,9.472 -64,17 0,-2 0,-4 0,-6 31.6913,-10.005 64.0247,-17.339 97,-22 9.977,1.062 19.643,3.395 29,7 14.109,8.388 28.776,15.721 44,22 6.547,2.405 13.214,4.405 20,6 20.093,3.571 40.093,7.571 60,12 6.236,2.117 12.236,4.784 18,8 3.082,3.159 5.416,6.825 7,11 0.996,5.963 1.329,11.963 1,18 z"
       id="path18" />
  </g>
  <g
     id="g19"
     style="opacity:0.04">
    <path
       style="opacity:1;fill:#000000;fill-opacity:0"
       fill="#000000"
       d="m 263.5,999.5 c -88,0 -176,0 -264,0 0,-18.667 0,-37.333 0,-56 20.773,-7.528 42.1064,-13.194 64,-17 13.9032,-2.794 27.9032,-3.46 42,-2 9.743,2.206 19.077,5.539 28,10 14.572,8.283 29.905,14.949 46,20 18.826,4.04 37.492,8.706 56,14 6.824,2.909 13.158,6.576 19,11 4.636,5.938 7.636,12.605 9,20 z"
       id="path19" />
  </g>
  <g
     id="g20"
     style="opacity:0.04">
    <path
       style="opacity:1"
       fill="#fefffe"
       d="m 999.5,939.5 c 0,2 0,4 0,6 -13.558,6.389 -21.892,17.056 -25,32 -1.438,7.291 -2.438,14.624 -3,22 -2,0 -4,0 -6,0 0.669,-9.354 1.669,-18.688 3,-28 3.909,-16.909 14.242,-27.576 31,-32 z"
       id="path20" />
  </g>
  <g
     id="g21"
     style="opacity:0.04">
    <path
       style="opacity:1;fill:#000000;fill-opacity:0"
       fill="#000000"
       d="m 999.5,945.5 c 0,18 0,36 0,54 -9.333,0 -18.667,0 -28,0 0.562,-7.376 1.562,-14.709 3,-22 3.108,-14.944 11.442,-25.611 25,-32 z"
       id="path21" />
  </g>
  <g
     id="g22"
     style="opacity:0.04">
    <path
       style="opacity:1"
       fill="#fefffe"
       d="m 743.5,999.5 c -6,0 -12,0 -18,0 -4.283,-1.327 -8.949,-1.993 -14,-2 -5.051,0.007 -9.717,0.673 -14,2 -4.667,0 -9.333,0 -14,0 0.835,-1.443 2.168,-2.443 4,-3 14.401,-5.853 29.068,-6.52 44,-2 4.445,1.132 8.445,2.799 12,5 z"
       id="path22" />
  </g>
  <g
     id="g23"
     style="opacity:0.04">
    <path
       style="opacity:1;fill:#000000;fill-opacity:0"
       fill="#000000"
       d="m 725.5,999.5 c -9.333,0 -18.667,0 -28,0 4.283,-1.327 8.949,-1.993 14,-2 5.051,0.007 9.717,0.673 14,2 z"
       id="path23" />
  </g>
  <path
     style="opacity:0.04;fill:#fefffe;fill-opacity:0;stroke:#ffffff;stroke-width:0;stroke-opacity:1"
     d="m 348.10958,572.75707 c -7.87614,-0.57487 -13.56914,-2.54708 -27.57732,-9.55352 l -10.85842,-5.43104 -7.84592,-5.8889 c -7.75079,-5.81749 -7.91955,-5.96934 -13.91806,-12.52291 -14.84913,-16.22318 -47.14127,-49.33767 -51.51865,-52.83063 -4.65769,-3.71664 -25.11286,-14.26306 -37.64348,-19.4085 -1.8908,-0.77641 -4.9231,-2.54568 -8.82472,-5.14899 -6.46711,-4.3151 -7.71107,-5.48939 -13.83286,-13.05815 -8.23877,-10.18609 -42.2593,-68.26522 -46.28865,-79.02299 -5.14314,-13.7314 -6.02197,-28.03496 -2.56131,-41.68718 3.46125,-13.65452 12.2201,-29.28744 23.27701,-41.54511 2.41412,-2.67629 4.04976,-4.10344 7.59299,-6.62516 l 4.51605,-3.21407 h 5.28541 5.28542 l -3.82395,2.12577 c -6.98437,3.88266 -8.90899,5.30384 -13.69269,10.11093 -7.56769,7.6047 -12.48697,14.28666 -16.47256,22.37503 -7.92294,16.07886 -9.42092,33.57898 -4.58043,53.51088 1.01814,4.19243 1.42533,5.22979 4.31183,10.98494 11.98836,23.90259 27.36335,45.70607 44.96878,63.77083 l 3.67177,3.76757 8.14176,4.49342 c 4.47797,2.47137 13.00379,6.94058 18.94627,9.93156 10.28167,5.17499 11.13216,5.67264 17.57534,10.28387 5.61488,4.01844 7.20306,5.3363 9.30261,7.71928 4.54148,5.15457 10.87575,12.098 14.5836,15.98611 1.99812,2.09525 4.69659,5.31817 5.99662,7.16204 9.61392,13.63577 14.23697,19.05397 28.56043,33.47279 12.43835,12.52115 12.91793,12.96154 17.26374,15.85289 12.03102,8.00445 23.35906,13.2784 32.38607,15.07785 3.78392,0.75429 11.66227,0.74263 15.34701,-0.0227 4.09967,-0.85152 8.9173,-2.5577 12.73269,-4.50932 2.76905,-1.4164 4.01977,-2.31003 6.52826,-4.66432 12.28437,-11.52929 20.66174,-28.07447 22.94161,-45.30936 0.60007,-4.53623 0.50349,-14.7326 -0.17994,-18.99744 -1.1784,-7.35363 -3.18777,-13.76928 -6.39998,-20.43423 -1.56732,-3.252 -2.81721,-5.22223 -5.77268,-9.09961 -7.36213,-9.65864 -13.72443,-17.29926 -22.49381,-27.01332 -4.40405,-4.87846 -4.82741,-5.4682 -8.25151,-11.49425 -1.98511,-3.49357 -4.96696,-9.08267 -6.62634,-12.42021 -2.99171,-6.0173 -3.02625,-6.11383 -4.11279,-11.49426 -2.7344,-13.54053 -4.1477,-25.99429 -4.81885,-42.46302 -0.21798,-5.34892 -0.82826,-8.66189 -2.54222,-13.80065 -3.94136,-11.81691 -11.42479,-22.13285 -20.43611,-28.17123 -16.04474,-10.75141 -34.42011,-21.43964 -53.63985,-31.20019 l -10.85568,-5.51295 4.78927,-0.007 4.78927,-0.007 11.10091,5.73936 c 20.20372,10.44567 42.48047,22.86303 46.84928,26.11442 4.16988,3.10335 8.01332,6.45825 12.31776,10.75206 4.50313,4.49201 5.3261,5.71406 8.28826,12.30745 3.30404,7.35436 3.91544,9.41028 4.77299,16.04964 1.42671,11.04597 2.35572,21.87739 3.03241,35.35521 0.67559,13.45602 4.62677,24.3798 14.60907,40.38953 3.91696,6.28206 5.34675,8.07338 19.11358,23.94636 7.00606,8.07791 13.4528,15.76469 14.32609,17.08174 2.24628,3.38773 5.91543,10.79092 7.12094,14.36781 1.24457,3.69278 1.66775,7.70586 1.66659,15.8046 -0.003,18.94986 -4.57493,36.30748 -13.87708,52.68199 -3.40453,5.99298 -5.13919,8.37536 -8.60508,11.81822 -10.16326,10.09573 -21.11777,14.461 -33.94075,13.52506 z"
     id="path24" />
  <path
     style="opacity:0.04;fill:#fefffe;fill-opacity:1;stroke:#ffffff;stroke-width:0;stroke-opacity:1"
     d="m 214.62141,261.98323 c -0.0338,1.76787 -0.0646,3.56022 0.0254,5.33369 0.0421,0.44152 0.64741,0.20505 0.9334,0.31636 14.43357,1.36934 28.55917,5.59326 41.46394,12.19129 8.62937,4.27926 17.17408,8.73312 25.55966,13.47218 12.71629,7.11469 25.09352,14.82562 37.20085,22.93185 3.19169,3.06985 6.205,6.33995 8.74089,9.97878 5.15274,7.28505 8.61,15.75729 10.1814,24.52432 0.29032,2.62503 0.19323,5.28767 0.33677,7.92933 0.0779,1.09109 6e-5,2.22244 0.21997,3.28632 2.36613,0.0338 4.74084,0.005 7.11026,0.0145 0.23077,-0.28443 0.0168,-0.78428 0.0376,-1.15143 -0.62024,-6.11346 -1.29295,-12.22542 -2.19349,-18.30443 -0.38172,-2.23325 -1.37001,-4.29976 -2.14969,-6.41118 -1.63492,-4.04277 -3.49947,-7.99786 -5.61333,-11.8119 -1.05992,-1.63736 -2.53954,-2.94683 -3.86263,-4.36457 -4.67254,-4.69636 -9.6485,-9.12858 -15.11871,-12.88038 -3.15053,-2.04579 -6.46754,-3.82072 -9.71103,-5.71259 -15.27539,-8.68234 -30.78589,-16.95255 -46.53007,-24.754 -5.38398,-2.68 -10.78233,-5.33573 -16.24962,-7.84196 -9.75755,-3.52866 -19.96212,-5.84528 -30.2989,-6.77829 l -0.0824,0.032 z"
     id="path49" />
  <path
     style="opacity:0.04;fill:#fefffe;fill-opacity:1;stroke:#ffffff;stroke-width:0;stroke-opacity:1"
     d="m 341.80798,361.83813 c -0.83497,0.0322 -1.68666,-0.0562 -2.51245,0.0756 -0.1978,0.20828 -4.6e-4,0.57646 -0.0461,0.83985 0.75801,13.37758 2.54694,26.70176 5.44291,39.78551 0.48901,1.93169 1.55511,3.64472 2.37357,5.44449 0.21371,0.28238 0.2236,0.91399 0.70456,0.80392 2.15624,-0.023 4.31615,0.0497 6.47021,-0.0494 0.32565,-0.0502 -0.006,-0.41459 -0.0457,-0.5752 -1.1918,-2.48678 -2.32655,-4.99817 -3.09054,-7.64858 -1.29918,-4.21498 -2.34457,-8.52186 -2.94632,-12.89087 -0.16127,-2.14812 -0.16699,-4.32222 -0.29361,-6.48029 -0.29649,-6.39575 -0.74371,-12.7841 -1.32737,-19.15995 -0.1566,-0.22042 -0.53196,-0.0641 -0.77099,-0.12319 -1.31925,-0.0247 -2.63883,-0.0227 -3.95826,-0.0218 z"
     id="path50" />
  <path
     style="opacity:0.04;fill:#fefffe;fill-opacity:1;stroke:#ffffff;stroke-width:0;stroke-opacity:1"
     d="m 174.81933,269.6582 c -4.13598,1.63732 -8.11054,3.66633 -11.6462,6.387 -4.84178,3.52274 -10.09263,6.69031 -13.83616,11.47089 -9.26448,10.45856 -16.51604,22.73574 -21.08502,35.9424 -2.31596,6.92139 -3.39768,14.20701 -3.32822,21.50043 -0.26183,9.06969 1.86619,18.08063 5.16123,26.48248 5.50981,11.6723 12.10854,22.79259 18.48531,34.00388 7.82402,13.37395 15.63933,26.77458 24.21802,39.6823 3.25274,4.41122 6.73883,8.68671 10.59354,12.58043 4.63716,3.41695 9.35507,6.82434 14.52149,9.40088 13.15893,5.4074 25.85454,11.95082 38.03189,19.27233 19.62785,19.22704 38.8653,38.8626 57.26743,59.26575 5.5777,4.43025 11.28024,8.74145 17.07475,12.865 7.56634,3.6675 14.9589,7.72593 22.70259,11.0095 9.46667,3.6182 20.11594,5.18153 29.9541,2.09473 9.3645,-2.88485 17.45702,-9.17925 23.45899,-16.82373 5.1059,-7.16457 8.90163,-15.2006 12.05503,-23.38895 3.35202,-9.25687 5.62022,-18.98703 6.12622,-28.83545 0.14395,-6.53594 0.42875,-13.11831 -0.28387,-19.62773 -1.57728,-7.09963 -5.04943,-13.66048 -9.02775,-19.69474 -9.00988,-11.15362 -18.87898,-21.59119 -27.82471,-32.79687 -4.99274,-6.85193 -9.27675,-14.2426 -13.05176,-21.79883 -2.31062,0.0993 -4.84399,-0.19708 -7.01709,0.14649 3.51121,6.67528 6.9284,13.44249 11.09228,19.7373 5.45495,6.65911 11.47013,12.84692 16.86893,19.55438 5.23582,6.48808 10.71812,12.87048 14.98712,20.05215 4.17515,8.26573 6.91238,17.37308 7.5632,26.62077 0.31913,7.09435 0.13298,14.25017 -1.60822,21.16333 -1.51575,7.11688 -4.22703,13.92383 -7.7457,20.2836 -4.0058,7.36308 -9.43133,13.97415 -15.72158,19.50495 -4.28514,3.5276 -9.6505,5.51388 -14.95847,6.8931 -9.19222,2.13743 -19.05266,1.306 -27.67824,-2.58692 -9.37321,-4.0044 -18.30973,-9.07695 -26.58578,-15.00903 -8.68025,-8.77375 -17.67407,-17.25415 -25.96308,-26.40058 -5.94652,-7.00283 -11.37404,-14.41888 -16.78562,-21.83356 -6.13065,-7.29377 -12.99837,-13.93538 -19.11914,-21.24219 -3.61552,-4.28147 -8.69158,-6.92891 -13.07267,-10.3168 -4.1074,-3.30745 -9.12456,-5.09679 -13.73641,-7.55966 -9.42283,-4.72432 -18.76978,-9.67395 -27.82313,-15.0435 -15.31038,-15.63955 -28.89333,-33.0143 -39.84651,-51.98413 -4.00198,-7.10812 -8.18837,-14.18773 -11.17313,-21.79269 -1.96256,-6.19642 -3.13613,-12.66463 -3.63665,-19.14267 -0.3896,-7.59338 -0.36396,-15.29983 1.55491,-22.7134 3.51521,-15.69702 12.907,-29.5871 24.64159,-40.3611 5.64465,-5.02802 12.52824,-8.38285 19.29765,-11.60985 4.23285,-1.94971 8.6006,-3.57864 12.98869,-5.14563 -1.18635,-0.4534 -3.07679,-0.0688 -4.53418,-0.19961 -3.8516,5.8e-4 -7.70549,-0.021 -11.55567,-0.006 z"
     id="path51" />
  <path
     style="opacity:0.04;fill:#fefffe;fill-opacity:1;stroke:#ffffff;stroke-width:0;stroke-opacity:1"
     d="m 202.50219,261.53456 c -3.10402,0.0752 -6.27368,-0.068 -9.32316,0.48361 -5.95237,2.45372 -11.941,4.84622 -17.81033,7.48412 0.25546,0.44581 1.18435,0.10041 1.66679,0.24636 4.66264,0.0617 9.33619,0.28639 13.99486,0.0647 3.81401,-0.93114 7.57805,-2.26144 11.51051,-2.63715 4.01299,-0.0134 8.06949,-0.0287 12.05293,0.43159 0.2402,-1.58005 0.0827,-3.373 0.0777,-5.03849 0.12291,-0.65923 -0.49404,-0.83452 -1.02296,-0.72986 -3.70653,-0.31914 -7.42918,-0.30555 -11.14632,-0.3049 z"
     id="path53" />
</svg>
