<?xml version="1.0" encoding="UTF-8" standalone="no"?>
<svg
   fill="#000000"
   version="1.1"
   id="Capa_1"
   viewBox="0 0 105.96887 571.04586"
   xml:space="preserve"
   sodipodi:docname="rope.svg"
   inkscape:version="1.4 (86a8ad7, 2024-10-11)"
   xmlns:inkscape="http://www.inkscape.org/namespaces/inkscape"
   xmlns:sodipodi="http://sodipodi.sourceforge.net/DTD/sodipodi-0.dtd"
   xmlns="http://www.w3.org/2000/svg"
   xmlns:svg="http://www.w3.org/2000/svg"><sodipodi:namedview
   id="namedview1"
   pagecolor="#000000"
   bordercolor="#000000"
   borderopacity="0.25"
   inkscape:showpageshadow="2"
   inkscape:pageopacity="0.0"
   inkscape:pagecheckerboard="0"
   inkscape:deskcolor="#d1d1d1"
   inkscape:zoom="0.65090456"
   inkscape:cx="-132.12382"
   inkscape:cy="284.98802"
   inkscape:window-width="1920"
   inkscape:window-height="1001"
   inkscape:window-x="-9"
   inkscape:window-y="-9"
   inkscape:window-maximized="1"
   inkscape:current-layer="Capa_1" /><defs
   id="defs1" />

<path
   style="fill:#ffffff;fill-opacity:1;stroke:#ffffff;stroke-width:0"
   d="M 48.887857,570.87792 C 28.36477,568.91057 10.582686,553.37982 3.3813447,531.13284 0.23431298,521.41077 -0.79530812,510.63109 0.62757458,502.30207 3.1667241,487.43885 13.428908,468.59881 30.879922,446.7627 c 2.151422,-2.69204 9.136706,-11.09483 10.261287,-12.3436 0.129096,-0.14335 0.23235,5.59293 0.23235,12.90808 v 13.16608 l -3.012515,4.06606 c -10.775653,14.54415 -17.936198,27.71223 -20.523776,37.74275 -0.726519,2.81629 -0.770147,3.30644 -0.761476,8.55497 0.01,6.05182 0.267008,7.98792 1.774476,13.36739 2.115358,7.54875 5.714322,13.96766 10.813983,19.28722 4.107755,4.28488 8.243306,7.05456 13.27598,8.89126 4.645127,1.69526 11.021843,2.14408 15.950638,1.12266 11.853004,-2.45634 21.637553,-11.65688 26.906868,-25.30087 2.152681,-5.574 3.589699,-14.15853 3.270976,-19.54035 C 88.42476,497.81063 81.068319,482.68852 67.60892,464.57096 l -3.155739,-4.24792 0.0705,-13.07382 0.0705,-13.07382 3.540959,4.18886 c 19.255256,22.77844 30.756417,41.23751 35.52457,57.01598 1.90046,6.28893 2.5076,10.85869 2.25469,16.97052 -0.98906,23.90152 -13.847643,45.03145 -32.911921,54.08269 -7.351688,3.49039 -16.492588,5.17511 -24.11462,4.44447 z"
   id="path3" /><path
   style="fill:#ffffff;fill-opacity:1;stroke:#ffffff;stroke-width:0"
   d="m 49.756944,473.16083 c -1.709796,-0.89321 -3.312939,-2.84703 -3.745465,-4.56474 -0.192961,-0.76632 -0.29254,-6.75142 -0.29254,-17.58275 v -16.42097 l 1.290037,-0.45232 c 0.709518,-0.24878 3.948182,-1.35329 7.197031,-2.45447 l 5.906999,-2.00215 -0.0027,19.33518 -0.0027,19.33519 -0.643054,1.35793 c -1.777229,3.75296 -6.151236,5.30702 -9.707702,3.4491 z"
   id="path5" /><path
   id="path7"
   style="fill:#ffffff;fill-opacity:1;stroke:#ffffff;stroke-width:0"
   d="M 58.483087,263.8596 H 40.830272 v 37.45915 68.56573 l 5.364063,-1.8524 c 2.950108,-1.01883 6.922426,-2.36838 8.826927,-2.99976 l 3.461825,-1.14841 v -65.56596 z" /><path
   id="path11"
   style="fill:#ffffff;fill-opacity:1;stroke:#ffffff;stroke-width:0"
   d="M 40.830272,0 V 266.93225 H 58.483087 V 0 H 49.6572 Z" /><path
   style="fill:#ffffff;fill-opacity:1;stroke:#ffffff;stroke-width:0"
   d="m 33.878747,391.15071 c -3.899208,-1.3935 -6.004533,-5.27607 -4.906322,-9.04807 0.545797,-1.87464 1.821983,-3.60931 3.261594,-4.43336 0.620261,-0.35505 7.482865,-2.81782 15.250228,-5.47284 15.982877,-5.46321 16.11395,-5.49163 18.940111,-4.1061 5.127184,2.51361 5.766192,9.31572 1.20217,12.79687 -1.14015,0.86963 -29.103282,10.46016 -31.005727,10.63404 -0.903314,0.0826 -1.821317,-0.0415 -2.742054,-0.37054 z"
   id="path8" /><path
   style="fill:#ffffff;fill-opacity:1;stroke:#ffffff;stroke-width:0"
   d="m 33.859436,411.76852 c -0.771889,-0.26674 -1.843173,-0.82039 -2.380632,-1.23033 -1.217759,-0.92883 -2.527977,-3.18067 -2.763159,-4.74898 -0.380007,-2.53407 0.996511,-5.73932 3.086585,-7.18719 0.598517,-0.41462 6.934042,-2.73272 15.410434,-5.63851 16.382716,-5.61617 16.45481,-5.6317 19.327265,-4.16267 4.663709,2.38511 5.584646,8.24411 1.876479,11.93815 -1.341133,1.33602 -1.541233,1.42856 -7.488641,3.46334 -17.989941,6.15489 -23.85488,8.06754 -24.714346,8.05978 -0.522803,-0.005 -1.582097,-0.22684 -2.353985,-0.49359 z"
   id="path9" /><path
   style="fill:#ffffff;fill-opacity:1;stroke:#ffffff;stroke-width:0"
   d="m 34.944136,432.6137 c -4.280376,-0.79176 -7.181342,-5.19996 -6.06542,-9.2168 0.382872,-1.37817 1.692185,-3.33282 2.796891,-4.17542 1.319197,-1.00619 29.890371,-10.75244 31.520859,-10.75244 2.577124,0 5.185306,1.57142 6.591909,3.97161 0.833659,1.42254 1.157427,4.11675 0.671613,5.58879 -0.505059,1.53034 -1.752417,3.28464 -2.898579,4.0766 -1.096966,0.75796 -28.70533,10.3283 -30.533229,10.58424 -0.522803,0.0732 -1.460623,0.0388 -2.084044,-0.0766 z"
   id="path10" /></svg>
