<svg xmlns="http://www.w3.org/2000/svg" xml:space="preserve" fill="none" stroke="#000" stroke-width="0" viewBox="0 0 46 48"><g style="stroke-width:.980962;stroke-dasharray:1.96192,1.96192;stroke-dashoffset:0"><path d="M28.872 14.449q-.25.005-.491.034c-1.395.013-2.792-.01-4.185-.01-1.923.115-3.872-.172-5.777.156-1.302.403-1.928 1.748-2.213 2.977-.953 2.958-2.096 5.866-2.906 8.863-.06 1.497 1.914 2.506 3.07 1.517 1.06-1.042 1.447-2.272 2.02-3.574.692-1.617 1.144-2.997 1.502-3.819-.102 2.421-.206 5.91-.282 7.85.061 4.974-.291 10.044-.142 15.011.345 1.455 2.576 1.801 3.316.48.539-1.18.167-2.524.276-3.775v-8.772h2.785c.038 4.021-.08 8.052.066 12.067.342 1.455 2.569 1.799 3.313.485.542-1.146.237-2.44.278-3.683.028-5.14-.065-10.287.058-15.425.003-.484.006-3.254-.006-4.205.479 1.014 1.862 5.251 2.29 6.313.316 1.21 1.86 1.898 2.898 1.105.912-.513 1.01-1.677.625-2.557-1.199-3.2-2.222-6.45-3.493-9.616-.604-1.057-1.84-1.445-3.002-1.422z" style="stroke:#fff;stroke-width:.980962;stroke-dasharray:1.96192,1.96192;stroke-dashoffset:0;stroke-opacity:.156542" transform="matrix(.75973 0 0 .75973 9.171 7.339)"/><path d="M24.283 3.703c-2.598.02-4.65 2.898-3.792 5.358.643 2.326 3.53 3.654 5.698 2.55 2.326-.961 3.134-4.196 1.637-6.183-.803-1.122-2.169-1.768-3.543-1.725z" style="stroke:#fff;stroke-width:.98084;stroke-dasharray:2.94252,.98084;stroke-dashoffset:0;stroke-opacity:.16" transform="matrix(.75973 0 0 .75973 9.171 7.339)"/><path d="M18.761 5.455c.706-5.615 10.086-5.84 11.26-.123" style="fill:none;fill-opacity:0;stroke:#fff;stroke-width:.842685;stroke-dasharray:2.52806,.842685;stroke-dashoffset:0;stroke-opacity:.16" transform="matrix(.75973 0 0 .75973 9.171 7.339)"/><path d="M17.278 6.736v2.311c.155.384.395.685.716.776.217.061.478.05.708.05V5.88c-.238.011-.537-.022-.754.053-.303.105-.525.417-.67.802zM31.62 6.632v2.312c-.154.383-.394.685-.716.775-.216.061-.478.05-.708.05V5.777c.239.011.538-.022.754.053.303.105.525.417.67.802z" style="fill:none;fill-opacity:1;stroke:#fff;stroke-width:.67954;stroke-dasharray:2.03862,.67954;stroke-dashoffset:0;stroke-opacity:.16" transform="matrix(.75973 0 0 .75973 9.171 7.339)"/><g style="fill:#fff"><path stroke="none" d="M393-120q-63 0-106.5-43.5T243-270t43.5-106.5T393-420q28 0 50.5 8t39.5 22v-450h234v135H543v435q0 63-43.5 106.5T393-120" style="fill:#fff;fill-opacity:.16;stroke:none" transform="matrix(.00412 0 0 .00412 32.553 11.08)"/></g><g style="fill:#fff;fill-opacity:1;stroke:none;stroke-width:.98075;stroke-dasharray:none;stroke-dashoffset:0"><path d="M360.655 258.05V25c0-13.807-11.191-25-25-25H130.09c-13.807 0-25 11.193-25 25v206.27c-10.569-3.184-22.145-4.271-34.058-2.768C29.527 233.738-.293 268.3 4.427 305.695c4.719 37.396 42.189 63.464 83.694 58.226 40.015-5.049 66.969-37.146 66.969-73.181V50h155.564v146.794c-10.591-3.2-22.19-4.297-34.134-2.79-41.504 5.237-71.323 39.798-66.604 77.193s42.188 63.464 83.694 58.227c39.341-4.966 67.045-36.149 67.045-71.374" style="fill:#fff;fill-opacity:.16;stroke:none;stroke-width:.98075;stroke-dasharray:none;stroke-dashoffset:0" transform="matrix(.00713 0 0 .00713 31.089 4.812)"/></g></g><path d="M7.485 45.25h16.253" style="fill:#000;stroke:#fff;stroke-width:.853333;stroke-linecap:butt;stroke-dasharray:2.56,.853333;stroke-dashoffset:0;stroke-opacity:.16"/><path d="M27.66 6.91v-4" style="fill:#000;stroke:#fff;stroke-width:.736845;stroke-linecap:butt;stroke-dasharray:1.47369,1.47369;stroke-dashoffset:0;stroke-opacity:.156542"/><path fill="none" d="M13.61 44.828V2.486h14.413" style="fill:#000;fill-opacity:0;stroke:#fff;stroke-width:.851974;stroke-linecap:butt;stroke-dasharray:2.55592,.851974;stroke-dashoffset:0;stroke-opacity:.16"/></svg>