<?xml version="1.0" encoding="UTF-8" standalone="no"?>
<svg
   xml:space="preserve"
   fill="none"
   stroke="#000000"
   stroke-width="0"
   viewBox="0 0 46 48"
   version="1.1"
   id="svg9"
   xmlns="http://www.w3.org/2000/svg"
   xmlns:svg="http://www.w3.org/2000/svg"><defs
     id="defs9" /><g
     style="stroke-width:0.980962;stroke-dasharray:1.96192, 1.96192;stroke-dashoffset:0"
     id="g7"><path
       d="m 28.872,14.449 q -0.25,0.005 -0.491,0.034 c -1.395,0.013 -2.792,-0.01 -4.185,-0.01 -1.923,0.115 -3.872,-0.172 -5.777,0.156 -1.302,0.403 -1.928,1.748 -2.213,2.977 -0.953,2.958 -2.096,5.866 -2.906,8.863 -0.06,1.497 1.914,2.506 3.07,1.517 1.06,-1.042 1.447,-2.272 2.02,-3.574 0.692,-1.617 1.144,-2.997 1.502,-3.819 -0.102,2.421 -0.206,5.91 -0.282,7.85 0.061,4.974 -0.291,10.044 -0.142,15.011 0.345,1.455 2.576,1.801 3.316,0.48 0.539,-1.18 0.167,-2.524 0.276,-3.775 v -8.772 h 2.785 c 0.038,4.021 -0.08,8.052 0.066,12.067 0.342,1.455 2.569,1.799 3.313,0.485 0.542,-1.146 0.237,-2.44 0.278,-3.683 0.028,-5.14 -0.065,-10.287 0.058,-15.425 0.003,-0.484 0.006,-3.254 -0.006,-4.205 0.479,1.014 1.862,5.251 2.29,6.313 0.316,1.21 1.86,1.898 2.898,1.105 0.912,-0.513 1.01,-1.677 0.625,-2.557 -1.199,-3.2 -2.222,-6.45 -3.493,-9.616 -0.604,-1.057 -1.84,-1.445 -3.002,-1.422 z"
       style="stroke:#ffffff;stroke-width:0.980962;stroke-dasharray:none;stroke-dashoffset:0;stroke-opacity:1"
       transform="matrix(0.75973,0,0,0.75973,9.171,7.339)"
       id="path1" /><path
       d="m 24.283,3.703 c -2.598,0.02 -4.65,2.898 -3.792,5.358 0.643,2.326 3.53,3.654 5.698,2.55 C 28.515,10.65 29.323,7.415 27.826,5.428 27.023,4.306 25.657,3.66 24.283,3.703 Z"
       style="stroke:#ffffff;stroke-width:0.98084;stroke-dasharray:none;stroke-dashoffset:0;stroke-opacity:1"
       transform="matrix(0.75973,0,0,0.75973,9.171,7.339)"
       id="path2" /><path
       d="m 18.576,8.064 c 0.068,-1.436 0.045,-1.495 0.185,-2.609 0.706,-5.615 10.086,-5.84 11.26,-0.123 0.23,1.118 0.203,1.516 0.295,3.03"
       style="fill:none;fill-opacity:0;stroke:#ffffff;stroke-width:0.842708;stroke-dasharray:none;stroke-dashoffset:0;stroke-opacity:0.99"
       transform="matrix(0.75973,0,0,0.75973,9.171,7.339)"
       id="path3" /><path
       d="m 17.278,6.736 v 2.311 c 0.155,0.384 0.395,0.685 0.716,0.776 0.217,0.061 0.478,0.05 0.708,0.05 V 5.88 C 18.464,5.891 18.165,5.858 17.948,5.933 17.645,6.038 17.423,6.35 17.278,6.735 Z M 31.62,6.632 v 2.312 c -0.154,0.383 -0.394,0.685 -0.716,0.775 -0.216,0.061 -0.478,0.05 -0.708,0.05 V 5.777 c 0.239,0.011 0.538,-0.022 0.754,0.053 0.303,0.105 0.525,0.417 0.67,0.802 z"
       style="fill:#ffffff;fill-opacity:1;stroke:#ffffff;stroke-width:0.67954;stroke-dasharray:none;stroke-dashoffset:0;stroke-opacity:1"
       transform="matrix(0.75973,0,0,0.75973,9.171,7.339)"
       id="path4" /><g
       style="fill:#ffffff"
       id="g5"><path
         stroke="none"
         d="m 393,-120 q -63,0 -106.5,-43.5 Q 243,-207 243,-270 243,-333 286.5,-376.5 330,-420 393,-420 q 28,0 50.5,8 22.5,8 39.5,22 v -450 h 234 v 135 H 543 v 435 q 0,63 -43.5,106.5 Q 456,-120 393,-120"
         style="fill:#ffffff;fill-opacity:1;stroke:none;stroke-opacity:1"
         transform="matrix(0.00412,0,0,0.00412,32.553,11.08)"
         id="path5" /></g><g
       style="fill:#ffffff;fill-opacity:1;stroke:none;stroke-width:0.98075;stroke-dasharray:none;stroke-dashoffset:0"
       id="g6"><path
         d="M 360.655,258.05 V 25 c 0,-13.807 -11.191,-25 -25,-25 H 130.09 c -13.807,0 -25,11.193 -25,25 v 206.27 c -10.569,-3.184 -22.145,-4.271 -34.058,-2.768 -41.505,5.236 -71.325,39.798 -66.605,77.193 4.719,37.396 42.189,63.464 83.694,58.226 40.015,-5.049 66.969,-37.146 66.969,-73.181 V 50 h 155.564 v 146.794 c -10.591,-3.2 -22.19,-4.297 -34.134,-2.79 -41.504,5.237 -71.323,39.798 -66.604,77.193 4.719,37.395 42.188,63.464 83.694,58.227 39.341,-4.966 67.045,-36.149 67.045,-71.374"
         style="fill:#ffffff;fill-opacity:1;stroke:none;stroke-width:0.98075;stroke-dasharray:none;stroke-dashoffset:0;stroke-opacity:1"
         transform="matrix(0.00713,0,0,0.00713,31.089,4.812)"
         id="path6" /></g></g><path
     d="M 7.485,45.25 H 23.738"
     style="fill:#000000;stroke:#ffffff;stroke-width:0.853333;stroke-linecap:butt;stroke-dasharray:none;stroke-dashoffset:0;stroke-opacity:1"
     id="path7" /><path
     d="M 27.646,6.91 V 2.759"
     style="fill:#000000;stroke:#ffffff;stroke-width:0.750758;stroke-linecap:butt;stroke-dasharray:none;stroke-dashoffset:0;stroke-opacity:1"
     id="path8" /><path
     fill="none"
     d="M 13.61,44.967 V 2.487 h 14.413"
     style="fill:#000000;fill-opacity:0;stroke:#ffffff;stroke-width:0.853333;stroke-linecap:butt;stroke-dasharray:none;stroke-dashoffset:0;stroke-opacity:1"
     id="path9" /><path
     id="path11-0"
     style="fill:none;fill-opacity:0;stroke:#ffffff;stroke-width:0.397742;stroke-dasharray:none;stroke-opacity:1"
     d="m 27.064988,12.308006 -1.145985,1.145985 m 0.0052,-1.151891 1.145985,1.145985" /><path
     id="path11-0-9"
     style="fill:none;fill-opacity:0;stroke:#ffffff;stroke-width:0.397742;stroke-dasharray:none;stroke-opacity:1"
     d="m 29.570227,12.34011 -1.145985,1.145985 m 0.0052,-1.151891 1.145985,1.145985" /></svg>
